<svg id="Layer_1" data-name="Layer 1" xmlns="http://www.w3.org/2000/svg" viewBox="0 0 77.53 91.32"><defs><style>.cls-1{fill:#61b55e;}.cls-2{fill:#51b848;}</style></defs><title>kickstarter</title><path class="cls-1" d="M40.41,36,57.14,11.73Q61.89,4.87,69.4,4.88A14.73,14.73,0,0,1,80,9.22a14,14,0,0,1,4.48,10.41,13.54,13.54,0,0,1-2.37,7.91L67,49.48,85.48,72.87A12.77,12.77,0,0,1,88.24,81,14.68,14.68,0,0,1,83.9,91.68a14.19,14.19,0,0,1-10.54,4.45q-6.79,0-10.34-4.41l-22.6-28.2V79.06q0,6.65-2.31,10.34a13.6,13.6,0,0,1-12.25,6.72q-7.31,0-11.33-4.94-3.76-4.55-3.75-12.06V21.48A17.76,17.76,0,0,1,14.58,9.75q4-4.87,11.07-4.88a14.58,14.58,0,0,1,11.2,4.88A12.38,12.38,0,0,1,40,15.22a33.66,33.66,0,0,1,.4,6.39V36" transform="translate(-10.76 -4.81)"/><path class="cls-2" d="M40.46,35.91,57.2,11.66q4.74-6.85,12.26-6.85A14.72,14.72,0,0,1,80.06,9.16a14,14,0,0,1,4.48,10.41,13.54,13.54,0,0,1-2.37,7.91L67.08,49.41,85.53,72.8A12.77,12.77,0,0,1,88.29,81a14.68,14.68,0,0,1-4.35,10.64A14.19,14.19,0,0,1,73.4,96.06q-6.79,0-10.35-4.41l-22.6-28.2V79q0,6.65-2.31,10.34A13.6,13.6,0,0,1,25.9,96.06q-7.31,0-11.33-4.94-3.76-4.55-3.76-12.06V21.41A17.76,17.76,0,0,1,14.63,9.68q4-4.88,11.07-4.88A14.58,14.58,0,0,1,36.9,9.68a12.38,12.38,0,0,1,3.16,5.47,33.52,33.52,0,0,1,.4,6.39V35.91" transform="translate(-10.76 -4.81)"/></svg>